<svg xmlns="http://www.w3.org/2000/svg" width="129" height="60" viewBox="0 0 129 60">
    <path fill="#FFF" d="M128.447 2.516A2.517 2.517 0 0 0 125.932 0H2.516a2.516 2.516 0 0 0 0 5.03h123.417a2.514 2.514 0 0 0 2.514-2.514zm-4.51 23.74a7.584 7.584 0 0 0-7.582-7.588h-8.66V34.44h8.92c4.192 0 7.32-3.396 7.32-7.587v-.598zm-4.06 12.845l8.255 17.24c.176.35.266.738.266 1.13 0 1.397-1.063 2.528-2.66 2.528-.8 0-1.664-.397-2.2-1.465L114.49 39.5h-6.79v17.97c0 1.663-1.264 2.527-2.526 2.527-1.265 0-2.53-.865-2.53-2.527V16.14c0-1.33 1.2-2.53 2.53-2.53h11.182c6.99 0 12.647 5.66 12.647 12.647v.6c0 5.856-3.728 10.715-9.12 12.246V39.1h-.003zm-25.76-22.76L83.735 58.002C83.4 59.334 82.27 60 81.004 60c-1.13 0-2.328-.666-2.66-1.998L67.894 16.34c-.066-.267-.066-.467-.066-.667 0-1.396 1.063-2.462 2.596-2.462 1.063 0 2.063.602 2.396 1.932l8.188 34.807 8.186-34.808c.334-1.33 1.4-1.93 2.396-1.93 1.532 0 2.664 1.062 2.664 2.46-.002.202-.07.402-.136.668zm-39.003 9.517c0-4.192-3.328-7.586-7.522-7.586h-.665c-4.193 0-7.588 3.395-7.588 7.52v21.563a7.586 7.586 0 0 0 7.58 7.588h.673c4.193 0 7.52-3.395 7.52-7.587V25.857zM47.592 60h-.665C39.94 60 34.28 54.34 34.28 47.352V25.79c0-6.987 5.66-12.58 12.65-12.58h.665c6.987 0 12.58 5.66 12.58 12.58v21.56c0 6.99-5.593 12.647-12.58 12.648h-.003zm-34.28 0h-.666C5.658 60 0 54.34 0 47.352V25.79c0-6.987 5.657-12.58 12.646-12.58h.666c6.39 0 11.65 4.66 12.514 10.85v.4c0 1.6-1.198 2.462-2.463 2.462-1.133 0-2.197-.73-2.53-2.195-.73-3.594-3.728-6.455-7.52-6.455h-.665c-4.194 0-7.587 3.396-7.587 7.52v21.563a7.583 7.583 0 0 0 7.58 7.588h.673c3.795 0 6.79-2.86 7.522-6.455.332-1.53 1.463-2.196 2.528-2.196 1.265 0 2.463.865 2.463 2.464v.465C24.896 55.275 19.636 60 13.312 60z"/>
</svg>
